<?xml version="1.0" standalone="no"?><!DOCTYPE svg PUBLIC "-//W3C//DTD SVG 1.1//EN" "http://www.w3.org/Graphics/SVG/1.1/DTD/svg11.dtd"><svg t="1720320542629" class="icon" viewBox="0 0 1024 1024" version="1.1" xmlns="http://www.w3.org/2000/svg" p-id="2661" xmlns:xlink="http://www.w3.org/1999/xlink" width="32" height="32"><path d="M511.8 511.1z m-289.9 0c0 160.1 129.8 289.9 289.9 289.9s289.9-129.8 289.9-289.9-129.7-290-289.9-290-289.9 129.9-289.9 290" fill="#ffffff" p-id="2662"></path><path d="M959.9 511.1c0 220.1-159.6 403.2-369 440.7v-53.3C771.2 861.8 907.2 702 907.2 511.1c0-218-177.4-395.4-395.4-395.4S116.5 293.1 116.5 511.1s177.4 395.4 395.4 395.4c8.9 0 17.6-0.7 26.4-1.3v52.7c-8.8 0.5-17.5 1.3-26.4 1.3-247.1 0-448.1-201-448.1-448.1S264.8 63 511.8 63s448.1 201 448.1 448.1z m-369-184.5h105.4v316.3c-20 0-39.1-11-39.1-11.1L630.1 677c3.1 1.9 31.9 18.6 66.3 18.6 30.1 0 52.7-22.6 52.7-52.7v-369H538.2V801h52.7V326.6zM485.5 563.8V326.6h-52.7v192.6l-105.4 39.5V320.1l165.4-47.3-14.5-50.7-203.6 58.2v298.1L239 591.9l18.5 49.4 174.8-65.6c-4.9 68.4-54.1 104.6-161.5 120.2l7.6 52.2c51.2-7.5 207.1-30.1 207.1-184.3z" fill="#2c2c2c" p-id="2663"></path></svg>