<?xml version="1.0" standalone="no"?><!DOCTYPE svg PUBLIC "-//W3C//DTD SVG 1.1//EN" "http://www.w3.org/Graphics/SVG/1.1/DTD/svg11.dtd"><svg t="1720320539435" class="icon" viewBox="0 0 1024 1024" version="1.1" xmlns="http://www.w3.org/2000/svg" p-id="2503" xmlns:xlink="http://www.w3.org/1999/xlink" width="32" height="32"><path d="M513.1 511.3z m-289.1 0c0 159.7 129.4 289.1 289.1 289.1S802.2 671 802.2 511.3 672.8 222.2 513.1 222.2 224 351.6 224 511.3" fill="#ffffff" p-id="2504"></path><path d="M959.9 511.3c0 219.4-159.1 402-368 439.4v-53.1C771.7 861 907.4 701.7 907.4 511.3c0-217.4-176.9-394.2-394.2-394.2S118.9 293.9 118.9 511.3s176.9 394.2 394.2 394.2c8.9 0 17.6-0.7 26.3-1.3v52.6c-8.8 0.5-17.4 1.3-26.3 1.3-246.4 0-446.8-200.4-446.8-446.8S266.8 64.5 513.1 64.5s446.8 200.4 446.8 446.8z m-251 291.9l-105.1-52.6-23.5 47 105.1 52.6 23.5-47zM446 797.6l-23.5-47-105.1 52.6 23.5 47L446 797.6z m251.1-365.1H539.4v-52.6h105.1v-52.6H381.7v52.6h105.1v52.6H329.2v315.4h52.6v-52.6h262.8v52.6h52.6V432.5h-0.1zM539.4 590.1h105.1v52.6H539.4v-52.6z m-157.7 0h105.1v52.6H381.7v-52.6zM539.4 485h105.1v52.6H539.4V485z m-157.7 0h105.1v52.6H381.7V485z m368-262.8H532.1l-20.3-60.9-49.9 16.7 14.7 44.2h-200v105.1h52.6v-52.6h368v52.6h52.6V222.2h-0.1z" fill="#2c2c2c" p-id="2505"></path></svg>