<?xml version="1.0" standalone="no"?><!DOCTYPE svg PUBLIC "-//W3C//DTD SVG 1.1//EN" "http://www.w3.org/Graphics/SVG/1.1/DTD/svg11.dtd"><svg t="1720320545350" class="icon" viewBox="0 0 1024 1024" version="1.1" xmlns="http://www.w3.org/2000/svg" p-id="2819" xmlns:xlink="http://www.w3.org/1999/xlink" width="32" height="32"><path d="M511.8 509.8z m-289.1 0c0 159.7 129.4 289.1 289.1 289.1s289.1-129.4 289.1-289.1-129.4-289.1-289.1-289.1-289.1 129.4-289.1 289.1" fill="#ffffff" p-id="2820"></path><path d="M958.6 509.8c0 219.4-159.1 402-368 439.4v-53.1C770.4 859.5 906 700.2 906 509.8c0-217.4-176.9-394.3-394.3-394.3S117.5 292.4 117.5 509.8s176.9 394.3 394.3 394.3c8.9 0 17.6-0.7 26.3-1.3v52.6c-8.8 0.5-17.4 1.3-26.3 1.3C265.4 956.6 65 756.2 65 509.8S265.4 63 511.8 63s446.8 200.4 446.8 446.8zM472.7 768.9l-39.8-22.5V483.5h-64.4c-14.1 107.9-43.3 192.2-100.2 254.3l-38.8-35.5c81.8-89.2 98.2-240.4 98.2-455.3v-26.3h368v52.6H380.3c-0.4 56.8-2.2 109.4-6.2 157.7h321.7v52.6H576.6c19.1 42.4 44.3 81.8 74.9 116.8l64.8-38.9 27 45.1-53.1 31.9c28.8 24.3 62.2 44.5 100.3 56.7l-15.9 50.1c-130.9-41.7-217.3-163-255.1-261.6h-34.1v216.4l67.3-40.4 27 45.1-107 64.1z m170.5-390.5H432.9v-52.6h210.3v52.6z" fill="#2c2c2c" p-id="2821"></path></svg>