<?xml version="1.0" standalone="no"?><!DOCTYPE svg PUBLIC "-//W3C//DTD SVG 1.1//EN" "http://www.w3.org/Graphics/SVG/1.1/DTD/svg11.dtd"><svg t="1720320580696" class="icon" viewBox="0 0 1024 1024" version="1.1" xmlns="http://www.w3.org/2000/svg" p-id="3767" xmlns:xlink="http://www.w3.org/1999/xlink" width="32" height="32"><path d="M510.7 513.7z m-289.7 0c0 160 129.7 289.7 289.7 289.7s289.7-129.7 289.7-289.7S670.7 224 510.7 224 221 353.7 221 513.7" fill="#ffffff" p-id="3768"></path><path d="M958.4 513.7c0 219.9-159.5 402.8-368.7 440.3v-53.2c180.1-36.7 316-196.3 316-387.1 0-217.8-177.2-395.1-395.1-395.1S115.7 295.9 115.7 513.7s177.2 395.1 395.1 395.1c8.9 0 17.6-0.7 26.3-1.3v52.7c-8.8 0.5-17.5 1.3-26.3 1.3-247 0-447.8-200.9-447.8-447.8S263.8 66 510.7 66s447.7 200.8 447.7 447.7z m-367.1 147c32.9 43.5 73.5 73 121.9 88.8l11.2 3.6 10.2-5.9c39.2-22.6 65.8-125.4 65.8-154.5h-52.7c0 21.6-18.7 79-32.9 101.2-34-14.3-63.1-38.4-87.2-72.5 47.2-54 90-114.7 117.8-175.8l-47.9-21.8C674.2 474.9 639 526.2 599.6 573c-23.5-49.8-40.2-113.3-50.5-191H695v-52.7H543.4c-4.4-52.6-6.5-105.3-6.3-158h-52.7c0 56.9 2.1 109.5 6.3 158H326.3v26.3c0 211.6-12.9 257.6-98.4 350.9l38.8 35.6c61.9-67.5 90.7-115.6 103.3-202.2h114.3v-52.7H375.6c2.2-35.1 3.3-70.2 3.4-105.3h117.4c12.3 96 34.2 173.5 65.9 232.8-60.6 64.1-125.2 115.3-169.4 139.1l24.9 46.4c46.5-24.9 111.5-75.6 173.5-139.5z m122.4-402.6l-79-79-37.2 37.2 79 79 37.2-37.2z" fill="#2c2c2c" p-id="3769"></path></svg>