<?xml version="1.0" standalone="no"?><!DOCTYPE svg PUBLIC "-//W3C//DTD SVG 1.1//EN" "http://www.w3.org/Graphics/SVG/1.1/DTD/svg11.dtd"><svg t="1720320548270" class="icon" viewBox="0 0 1024 1024" version="1.1" xmlns="http://www.w3.org/2000/svg" p-id="2977" xmlns:xlink="http://www.w3.org/1999/xlink" width="32" height="32"><path d="M512.9 510.9z m-286 0c0 158 128.1 286 286 286s286-128.1 286-286-128.1-286-286-286-286 128-286 286" fill="#ffffff" p-id="2978"></path><path d="M955 510.9c0 217.1-157.5 397.8-364.1 434.8v-52.6c177.8-36.2 312-193.8 312-382.2 0-215.1-175-390.1-390.1-390.1s-390.1 175-390.1 390.1S297.8 901 512.9 901c8.8 0 17.4-0.7 26-1.3v52c-8.7 0.5-17.2 1.3-26 1.3-243.8 0-442.1-198.3-442.1-442.1S269.1 68.8 512.9 68.8 955 267.1 955 510.9zM721.4 685.3L671.1 672c-18.1 68.4-23.7 72.9-54.2 72.9h-234v-260h260v52h52v-312h-364V745c0 28.7 23.3 52 52 52h234c75-0.1 88-49.3 104.5-111.7zM382.9 276.9h260v156h-260v-156z" fill="#2c2c2c" p-id="2979"></path></svg>