<?xml version="1.0" standalone="no"?><!DOCTYPE svg PUBLIC "-//W3C//DTD SVG 1.1//EN" "http://www.w3.org/Graphics/SVG/1.1/DTD/svg11.dtd"><svg t="1720320582637" class="icon" viewBox="0 0 1024 1024" version="1.1" xmlns="http://www.w3.org/2000/svg" p-id="3925" xmlns:xlink="http://www.w3.org/1999/xlink" width="32" height="32"><path d="M512.2 510.7z m-289.7 0c0 160 129.7 289.7 289.7 289.7s289.7-129.7 289.7-289.7S672.2 221 512.2 221 222.5 350.7 222.5 510.7" fill="#ffffff" p-id="3926"></path><path d="M314.8 796.9l-26.5-45.5C389 692.7 467.1 621.8 524.2 537h-170L341 487.9c57.5-33.2 97.2-114.9 116-161.6H248.8v-52.7h526.7v52.7h-262c-12.1 33.3-41.5 104.2-88.4 158h131c18.1-33.7 33.3-68.9 45.3-105.3l49.9 16.7c-57.1 171.4-167.2 302.5-336.5 401.2z m187.9-2.9L469 753.6c86.4-72.1 151-155.2 197.5-254l47.7 22.4c-22.2 47.5-49.2 92.6-80.5 134.7 32 14.7 81.6 43.9 134.5 99.3l-38.1 36.4c-55.9-58.5-106.8-83.6-130.7-93-29.5 34.1-61.9 65.7-96.7 94.6z m47.6-524.7l-79-52.7 29.2-43.8 79 52.7-29.2 43.8zM512.2 63C265.3 63 64.5 263.8 64.5 510.7s200.8 447.7 447.7 447.7c8.9 0 17.6-0.8 26.3-1.3v-52.7c-8.7 0.6-17.5 1.3-26.3 1.3-217.8 0-395.1-177.2-395.1-395.1s177.2-395.1 395.1-395.1 395.1 177.2 395.1 395.1c0 190.8-135.9 350.4-316 387.1V951C800.5 913.5 960 730.6 960 510.7 959.9 263.8 759.1 63 512.2 63z" fill="#2c2c2c" p-id="3927"></path></svg>