<?xml version="1.0" standalone="no"?><!DOCTYPE svg PUBLIC "-//W3C//DTD SVG 1.1//EN" "http://www.w3.org/Graphics/SVG/1.1/DTD/svg11.dtd"><svg t="1720320551389" class="icon" viewBox="0 0 1024 1024" version="1.1" xmlns="http://www.w3.org/2000/svg" p-id="3135" xmlns:xlink="http://www.w3.org/1999/xlink" width="32" height="32"><path d="M510.1 510z m-288.2 0c0 159.2 129.1 288.2 288.2 288.2s288.3-129 288.3-288.2-129.1-288.3-288.3-288.3S221.9 350.8 221.9 510" fill="#ffffff" p-id="3136"></path><path d="M955.6 510c0 218.8-158.7 400.8-366.9 438.1v-53C768 858.6 903.2 699.8 903.2 510c0-216.7-176.3-393.1-393.1-393.1s-393 176.3-393 393.1 176.3 393 393 393c8.8 0 17.5-0.7 26.2-1.3v52.4c-8.7 0.5-17.4 1.3-26.2 1.3-245.6 0-445.4-199.8-445.4-445.4S264.5 64.5 510.1 64.5 955.6 264.3 955.6 510z m-419.3 26.2h262v-52.4h-262V326.5h157.2v-52.4H411.9c11.7-32.4 19.6-67.9 19.6-104.8h-52.4c0 118.6-102.5 227-103.5 228l37.8 36.3c2.8-2.9 42.6-44.9 75.3-107.1H484v157.2H222v52.4h262v314.4h52.4V536.2h-0.1z" fill="#2c2c2c" p-id="3137"></path></svg>