<?xml version="1.0" standalone="no"?><!DOCTYPE svg PUBLIC "-//W3C//DTD SVG 1.1//EN" "http://www.w3.org/Graphics/SVG/1.1/DTD/svg11.dtd"><svg t="1720320571620" class="icon" viewBox="0 0 1024 1024" version="1.1" xmlns="http://www.w3.org/2000/svg" p-id="3293" xmlns:xlink="http://www.w3.org/1999/xlink" width="32" height="32"><path d="M511.9 512.2z m-288.7 0c0 159.5 129.3 288.7 288.7 288.7s288.7-129.3 288.7-288.7-129.2-288.7-288.7-288.7-288.7 129.3-288.7 288.7" fill="#ffffff" p-id="3294"></path><path d="M958.1 512.2c0 219.2-158.9 401.5-367.5 438.9v-53c179.5-36.6 315-195.7 315-385.8 0-217.1-176.6-393.7-393.7-393.7S118.2 295.1 118.2 512.2 294.8 906 511.9 906c8.8 0 17.5-0.7 26.2-1.3v52.5c-8.7 0.5-17.4 1.3-26.2 1.3-246.1 0-446.2-200.2-446.2-446.2S265.8 66 511.9 66s446.2 200.2 446.2 446.2z m-420 48.9c50.9 69.1 133.4 148.2 226.5 185.4l19.5-48.7C677.7 655.3 586.6 549.2 551.5 486h249.1v-52.5H538.1V381h210v-52.5h-210V171h-52.5v157.5h-210V381h210v52.5H223.2V486h249.1c-35 63.2-126.2 169.3-232.6 211.9l19.5 48.7c93.1-37.2 175.5-116.4 226.5-185.4V801h52.5V561.1h-0.1z" fill="#2c2c2c" p-id="3295"></path></svg>