<?xml version="1.0" standalone="no"?><!DOCTYPE svg PUBLIC "-//W3C//DTD SVG 1.1//EN" "http://www.w3.org/Graphics/SVG/1.1/DTD/svg11.dtd"><svg t="1720320575524" class="icon" viewBox="0 0 1024 1024" version="1.1" xmlns="http://www.w3.org/2000/svg" p-id="3451" xmlns:xlink="http://www.w3.org/1999/xlink" width="32" height="32"><path d="M512.2 511z m-289.7 0c0 160 129.7 289.7 289.7 289.7S801.9 671 801.9 511 672.2 221.3 512.2 221.3 222.5 351 222.5 511" fill="#ffffff" p-id="3452"></path><path d="M959.9 511c0 219.9-159.5 402.8-368.7 440.3v-53.2c180.1-36.7 316-196.3 316-387.1 0-217.8-177.2-395.1-395.1-395.1S117.2 293.2 117.2 511s177.2 395 395 395c8.9 0 17.6-0.7 26.3-1.3v52.7c-8.8 0.5-17.5 1.3-26.3 1.3-246.9 0-447.7-200.8-447.7-447.7S265.3 63.3 512.2 63.3 959.9 264.1 959.9 511zM538.5 642.7h158v52.7h52.7V274H538.5V168.6h-52.7V274H275.2v421.4h52.7v-52.7h158v210.7h52.7V642.7h-0.1z m0-158.1h158V590h-158V484.6z m-210.7 0h158V590h-158V484.6z m210.7-158h158V432h-158V326.6z m-210.7 0h158V432h-158V326.6z" fill="#2c2c2c" p-id="3453"></path></svg>