<?xml version="1.0" standalone="no"?><!DOCTYPE svg PUBLIC "-//W3C//DTD SVG 1.1//EN" "http://www.w3.org/Graphics/SVG/1.1/DTD/svg11.dtd"><svg t="1720320505606" class="icon" viewBox="0 0 1024 1024" version="1.1" xmlns="http://www.w3.org/2000/svg" p-id="1779" width="32" height="32" xmlns:xlink="http://www.w3.org/1999/xlink"><path d="M513.1 510z m-288.2 0c0 159.2 129.1 288.2 288.2 288.2s288.3-129 288.3-288.2-129.1-288.3-288.3-288.3S224.9 350.8 224.9 510" fill="#ffffff" p-id="1780"></path><path d="M958.6 510c0 218.8-158.7 400.8-366.9 438.1v-53C771 858.6 906.2 699.8 906.2 510c0-216.7-176.3-393.1-393.1-393.1s-393 176.3-393 393.1 176.3 393 393 393c8.8 0 17.5-0.7 26.2-1.3v52.4c-8.7 0.5-17.4 1.3-26.2 1.3-245.6 0-445.4-199.8-445.4-445.4S267.5 64.5 513.1 64.5 958.6 264.3 958.6 510zM539.3 693.4V483.8h262v-52.4h-262v-38.5c25.8-17.6 92-63.3 172.9-124l-15.7-47.2H329.7v52.4h287.2c-38.9 28.4-78.4 56-118.3 83l-11.7 7.8v66.4H251.1v52.4h235.8v209.6c0 47-13.5 52.4-131 52.4v52.4c102.5 0.1 183.4 0.1 183.4-104.7z" fill="#2c2c2c" p-id="1781"></path></svg>