<?xml version="1.0" standalone="no"?><!DOCTYPE svg PUBLIC "-//W3C//DTD SVG 1.1//EN" "http://www.w3.org/Graphics/SVG/1.1/DTD/svg11.dtd"><svg t="1720320578412" class="icon" viewBox="0 0 1024 1024" version="1.1" xmlns="http://www.w3.org/2000/svg" p-id="3609" xmlns:xlink="http://www.w3.org/1999/xlink" width="32" height="32"><path d="M512.2 510.7z m-289.7 0c0 160 129.7 289.7 289.7 289.7s289.7-129.7 289.7-289.7S672.2 221 512.2 221 222.5 350.7 222.5 510.7" fill="#ffffff" p-id="3610"></path><path d="M959.9 510.7c0 219.9-159.5 402.8-368.7 440.3v-53.2c180.1-36.7 316-196.3 316-387.1 0-217.8-177.2-395.1-395.1-395.1S117.2 292.9 117.2 510.7s177.2 395.1 395.1 395.1c8.9 0 17.6-0.7 26.3-1.3v52.7c-8.8 0.5-17.5 1.3-26.3 1.3-246.9 0-447.7-200.8-447.7-447.7S265.3 63 512.2 63s447.7 200.8 447.7 447.7zM749.2 326.4h-158V300h158v-52.7h-474V300h158v26.3h-158v474.1h52.7v-52.7h368.7v52.7h52.7v-474h-0.1z m-421.4 316h368.7v52.7H327.8v-52.7z m0-263.4h105.3c0 101-71.1 105.2-79.2 105.3l0.2 52.7c45.5 0 131.7-33 131.7-158h52.7v105.3c0 29 23.6 52.7 52.7 52.7h105.3v52.7H327.8V379z m368.8 0v105.3H591.2V379h105.4z m-210.7-79h52.7v26.3h-52.7V300z" fill="#2c2c2c" p-id="3611"></path></svg>