<?xml version="1.0" standalone="no"?><!DOCTYPE svg PUBLIC "-//W3C//DTD SVG 1.1//EN" "http://www.w3.org/Graphics/SVG/1.1/DTD/svg11.dtd"><svg t="1720320534007" class="icon" viewBox="0 0 1024 1024" version="1.1" xmlns="http://www.w3.org/2000/svg" p-id="2345" xmlns:xlink="http://www.w3.org/1999/xlink" width="32" height="32"><path d="M513.6 510.8z m-288.8 0c0 159.5 129.3 288.8 288.8 288.8s288.8-129.3 288.8-288.8S673.1 222 513.6 222 224.8 351.3 224.8 510.8" fill="#ffffff" p-id="2346"></path><path d="M959.9 510.8c0 219.2-159 401.6-367.5 438.9v-53.1c179.5-36.6 315-195.7 315-385.9 0-217.1-176.7-393.8-393.8-393.8S119.8 293.7 119.8 510.8s176.7 393.8 393.8 393.8c8.8 0 17.5-0.7 26.3-1.3v52.5c-8.7 0.5-17.4 1.3-26.3 1.3-246.1 0-446.3-200.2-446.3-446.3S267.5 64.5 513.6 64.5s446.3 200.2 446.3 446.3zM802.4 694.6H647c13.6-168.4 42-348.2 69-375.2l-18.6-44.8H329.9V327h104.4c-1.9 44.6-8 101.3-15.4 157.5h-89.1V537h81.8c-9.6 66.7-19.7 126.8-25.1 157.5H224.8V747h577.6v-52.4zM464.8 537.1h145.9c-6.8 52.4-12.2 104.9-16.4 157.5H439.9c5.9-34.4 15.7-93.2 24.9-157.5z m22-210.1h167.3c-14.8 40.1-26.7 98-35.9 157.5H471.9c7.2-56 13.1-112.3 14.9-157.5z" fill="#2c2c2c" p-id="2347"></path></svg>